# xmcd
#
# Track frame offsets:
#	150
#	11762
#	25336
#	35683
#	50970
#	65400
#	79340
#	92149
#	105814
#	117091
#	130593
#	142842
#	161759
#	171832
#
# Disc length: 2397 seconds
#
# Revision: 1
# Processed by: cddbd v1.5.1PL0 Copyright (c) Steve Scherf et al.
# Submitted via: audiograbber 1.82.01
#
DISCID=b6095b0e
DTITLE=Larry Keel and Natural Bridge - Larry Keel and Natural Bridge
DYEAR=2005
DGENRE=Bluegrass
TTITLE0=Border Ride
TTITLE1=Weary Heart
TTITLE2=Lets Go To The Fair
TTITLE3=Farewell Blues
TTITLE4=I Know You're Married
TTITLE5=Poor Monroe
TTITLE6=Gatherin Flowers
TTITLE7=Heavy Traffic
TTITLE8=Georgia Mail
TTITLE9=Next Sunday Darlin
TTITLE10=Dear Ole Pal
TTITLE11=I Haven't Seen Mary
TTITLE12=Groundhog
TTITLE13=Durhams Bull
EXTD=
EXTT0=
EXTT1=
EXTT2=
EXTT3=
EXTT4=
EXTT5=
EXTT6=
EXTT7=
EXTT8=
EXTT9=
EXTT10=
EXTT11=
EXTT12=
EXTT13=
PLAYORDER=
